Coordinates
version=1
nRows=65
nColumns=12
inDegrees=yes

Units are S.I. units (second, meters, Newtons, ...)
Angles are in degrees

endheader
time	SC_y	SC_z	SC_x	AC_y	AC_z	AC_x	GH_y	GH_z	GH_yy	EL_x	PS_y
       0.0              -29.63          29.43           42.1          54.55          4.138          3.814         -130.4          66.33          94.04          113.5          101.2
   0.03125              -29.63          29.43          42.09          54.54          4.137          3.813         -130.4          66.32          94.02          113.5          101.2
   0.06251              -29.62          29.43          42.09          54.54          4.136          3.812         -130.4          66.31           94.0          113.5          101.2
   0.09376              -29.62          29.42          42.09          54.54          4.135          3.811         -130.4          66.31          93.98          113.5          101.2
     0.125              -29.62          29.42          42.08          54.53          4.133          3.809         -130.4           66.3          93.96          113.5          101.2
    0.1563              -29.62          29.42          42.07          54.53          4.132          3.808         -130.4          66.29          93.94          113.5          101.2
    0.1875              -29.61          29.42          42.07          54.52           4.13          3.807         -130.4          66.28          93.91          113.5          101.2
    0.2188              -29.61          29.41          42.06          54.52          4.129          3.805         -130.4          66.27          93.88          113.5          101.2
      0.25              -29.61          29.41          42.06          54.51          4.127          3.804         -130.4          66.25          93.85          113.5          101.1
    0.2813              -29.61          29.41          42.05          54.51          4.125          3.802         -130.4          66.24          93.82          113.5          101.1
    0.3125               -29.6           29.4          42.04           54.5          4.123            3.8         -130.4          66.23          93.79          113.6          101.1
    0.3438               -29.6           29.4          42.03           54.5           4.12          3.799         -130.4          66.21          93.75          113.6          101.1
    0.3751               -29.6          29.39          42.02          54.49          4.118          3.797         -130.4           66.2          93.72          113.6          101.1
    0.4063              -29.59          29.39          42.01          54.48          4.115          3.794         -130.4          66.18          93.67          113.6          101.1
    0.4376              -29.59          29.38           42.0          54.47          4.112          3.792         -130.4          66.16          93.63          113.6          101.1
    0.4688              -29.58          29.38          41.99          54.47          4.109          3.789         -130.4          66.14          93.58          113.6          101.0
    0.5001              -29.58          29.37          41.98          54.46          4.106          3.787         -130.4          66.12          93.53          113.6          101.0
    0.5313              -29.57          29.37          41.97          54.45          4.102          3.783         -130.4          66.09          93.47          113.6          101.0
    0.5626              -29.57          29.36          41.95          54.43          4.098           3.78         -130.4          66.07          93.41          113.6          101.0
    0.5938              -29.56          29.35          41.94          54.42          4.094          3.776         -130.4          66.04          93.34          113.6          101.0
    0.6251              -29.55          29.34          41.92          54.41          4.089          3.772         -130.4          66.01          93.26          113.6          100.9
    0.6564              -29.54          29.33           41.9          54.39          4.084          3.768         -130.4          65.97          93.18          113.6          100.9
    0.6876              -29.53          29.32          41.88          54.38          4.078          3.763         -130.4          65.94          93.08          113.6          100.9
    0.7189              -29.52          29.31          41.86          54.36          4.072          3.758         -130.4          65.89          92.98          113.6          100.8
    0.7501              -29.51           29.3          41.83          54.34          4.064          3.752         -130.4          65.85          92.87          113.6          100.8
    0.7814               -29.5          29.28           41.8          54.32          4.056          3.745         -130.4          65.79          92.74          113.6          100.7
    0.8126              -29.49          29.27          41.77          54.29          4.047          3.737         -130.4          65.74           92.6          113.7          100.7
    0.8439              -29.47          29.25          41.73          54.26          4.037          3.729         -130.4          65.67          92.44          113.7          100.6
    0.8751              -29.45          29.23          41.69          54.23          4.026          3.719         -130.4          65.59          92.26          113.7          100.6
    0.9064              -29.44           29.2          41.64           54.2          4.013          3.708         -130.4          65.51          92.05          113.7          100.5
    0.9376              -29.41          29.18          41.59          54.16          3.998          3.696         -130.4          65.41          91.82          113.7          100.4
    0.9689              -29.39          29.15          41.53          54.11          3.981          3.682         -130.4           65.3          91.55          113.8          100.3
       1.0              -29.36          29.11          41.46          54.05          3.961          3.665         -130.4          65.17          91.24          113.8          100.2
     1.031              -29.32          29.07          41.37          53.99          3.938          3.646         -130.4          65.03          90.88          113.8          100.0
     1.063              -29.28          29.02          41.28          53.92          3.912          3.624         -130.4          64.85          90.45          113.9          99.89
     1.094              -29.23          28.96          41.16          53.83           3.88          3.598         -130.4          64.65          89.95          113.9           99.7
     1.125              -29.18           28.9          41.03          53.72          3.843          3.566         -130.4           64.4          89.36          114.0          99.48
     1.156              -29.11          28.81          40.87           53.6          3.798          3.529         -130.4          64.11          88.65          114.0          99.22
     1.188              -29.02          28.72          40.67          53.45          3.744          3.483         -130.4          63.75          87.79          114.1           98.9
     1.219              -28.92           28.6          40.43          53.26          3.677          3.428         -130.5          63.32          86.75          114.2          98.51
      1.25               -28.8          28.45          40.13          53.04          3.596          3.359         -130.5          62.79          85.45          114.3          98.04
     1.281              -28.64          28.26          39.77          52.75          3.493          3.274         -130.5          62.12          83.84          114.5          97.44
     1.313              -28.45          28.03           39.3           52.4          3.365          3.166         -130.5          61.28           81.8          114.6          96.69
     1.344               -28.2          27.73          38.71          51.94          3.202           3.03         -130.5          60.22          79.22          114.9          95.73
     1.375              -27.88          27.35          37.95          51.36          2.992          2.855         -130.5          58.85          75.91          115.2           94.5
     1.406              -27.47          26.87          36.98          50.61          2.724           2.63         -130.5           57.1          71.66          115.5          92.93
     1.438              -26.94          26.25          35.74          49.66          2.381          2.343         -130.6          54.87          66.24          116.0          90.93
     1.469              -26.29          25.47          34.18          48.46           1.95          1.982         -130.6          52.05          59.42          116.7           88.4
       1.5              -25.48          24.51          32.28           47.0          1.425          1.543         -130.6          48.63          51.11          117.4          85.33
     1.531              -24.55          23.41          30.08          45.31         0.8158          1.033         -130.7          44.65          41.48          118.3          81.76
     1.563              -23.55          22.22          27.69          43.47         0.1565         0.4812         -130.8          40.35          31.05          119.2           77.9
     1.594              -22.54          21.02          25.31          41.64        -0.5028       -0.07062         -130.8          36.05          20.62          120.2          74.04
     1.625              -21.61          19.92           23.1          39.95         -1.112        -0.5802         -130.9          32.08          10.99          121.0          70.48
     1.657              -20.81          18.96           21.2          38.48         -1.637          -1.02         -130.9          28.65          2.679          121.8           67.4
     1.688              -20.15          18.18          19.64          37.29         -2.068         -1.381         -130.9          25.84          -4.14          122.4          64.88
     1.719              -19.63          17.56           18.4          36.33         -2.411         -1.668         -131.0           23.6         -9.564          122.9          62.87
      1.75              -19.22          17.08          17.43          35.59         -2.679         -1.892         -131.0          21.85         -13.81          123.3           61.3
     1.782               -18.9           16.7          16.68           35.0         -2.888         -2.067         -131.0          20.49         -17.12          123.6          60.07
     1.813              -18.65           16.4          16.09          34.55         -3.052         -2.204         -131.0          19.42          -19.7          123.8          59.12
     1.844              -18.45          16.17          15.62          34.19          -3.18         -2.312         -131.0          18.59         -21.74          124.0          58.37
     1.875               -18.3          15.98          15.25          33.91         -3.282         -2.397         -131.0          17.92         -23.35          124.1          57.77
     1.907              -18.17          15.83          14.96          33.68         -3.364         -2.465         -131.1          17.39         -24.64          124.2          57.29
     1.938              -18.07          15.71          14.72           33.5         -3.431         -2.521         -131.1          16.95         -25.69          124.3           56.9
     1.969              -17.99          15.62          14.52          33.35         -3.485         -2.566         -131.1           16.6         -26.55          124.4          56.58
       2.0              -17.92          15.53          14.36          33.22          -3.53         -2.604         -131.1          16.31         -27.26          124.5          56.32
